<?xml version="1.0" encoding="utf-8"?>
<!-- Generator: Adobe Illustrator 18.0.0, SVG Export Plug-In . SVG Version: 6.00 Build 0)  -->
<!DOCTYPE svg PUBLIC "-//W3C//DTD SVG 1.1//EN" "http://www.w3.org/Graphics/SVG/1.1/DTD/svg11.dtd">
<svg version="1.1" id="Layer_1" xmlns="http://www.w3.org/2000/svg" xmlns:xlink="http://www.w3.org/1999/xlink" x="0px" y="0px"
	 width="2000px" height="2000px" viewBox="0 0 2000 2000" enable-background="new 0 0 2000 2000" xml:space="preserve">
<rect fill="#DEF8FC" width="1999.5" height="1338.2"/>
<path fill="#BCEAF7" d="M1866.8,1756.9H133.2v-558.6c0-478.7,388.1-866.8,866.8-866.8h0c478.7,0,866.8,388.1,866.8,866.8V1756.9z"/>
<rect y="1338.2" fill="#939598" width="1999.5" height="660.2"/>
<rect x="189" y="1553" fill="#848587" width="1531.4" height="88"/>
<g>
	<path fill="#FFFFFF" d="M1787.9,902.2H1318c-15.1,0-27.4,12.2-27.4,27.4v0c0,15.1,12.2,27.4,27.4,27.4h192.9
		c6.6,2,11.3,8,11.3,15.2c0,8.8-7.1,15.9-15.9,15.9h-298c-14.2,0-25.8,11.5-25.8,25.8v0c0,14.2,11.5,25.8,25.8,25.8h520.4
		c14.2,0,25.8-11.5,25.8-25.8v0c0-14.2-11.5-25.8-25.8-25.8h3.3c-8.8,0-15.9-7.1-15.9-15.9c0-7.2,4.8-13.3,11.3-15.2h60.4
		c15.1,0,27.4-12.2,27.4-27.4v0C1815.2,914.4,1803,902.2,1787.9,902.2z"/>
	<path fill="#FFFFFF" d="M1884.1,902.2h-10.2c-15.1,0-27.4,12.2-27.4,27.4v0c0,15.1,12.2,27.4,27.4,27.4h10.2
		c15.1,0,27.4-12.2,27.4-27.4v0C1911.4,914.4,1899.2,902.2,1884.1,902.2z"/>
	<path fill="#FFFFFF" d="M1123.6,988h-41.7c-14.2,0-25.8,11.5-25.8,25.8v0c0,14.2,11.5,25.8,25.8,25.8h41.7
		c14.2,0,25.8-11.5,25.8-25.8v0C1149.4,999.5,1137.8,988,1123.6,988z"/>
</g>
<g>
	<path fill="#FFFFFF" d="M777.8,497h-298c-8.8,0-15.9-7.1-15.9-15.9c0-7.2,4.8-13.3,11.3-15.2h139.5c15.1,0,27.4-12.2,27.4-27.4v0
		c0-15.1-12.2-27.4-27.4-27.4H144.8c-15.1,0-27.4,12.2-27.4,27.4v0c0,15.1,12.2,27.4,27.4,27.4h113.9c6.6,2,11.3,8,11.3,15.2
		c0,8.8-7.1,15.9-15.9,15.9h3.3c-14.2,0-25.8,11.5-25.8,25.8v0c0,14.2,11.5,25.8,25.8,25.8h520.4c14.2,0,25.8-11.5,25.8-25.8v0
		C803.6,508.6,792.1,497,777.8,497z"/>
	<path fill="#FFFFFF" d="M422.2,190.4h298c8.8,0,15.9-7.1,15.9-15.9c0-7.2-4.8-13.3-11.3-15.2H585.2c-15.1,0-27.4-12.2-27.4-27.4v0
		c0-15.1,12.2-27.4,27.4-27.4h469.9c15.1,0,27.4,12.2,27.4,27.4v0c0,15.1-12.2,27.4-27.4,27.4H941.3c-6.6,2-11.3,8-11.3,15.2
		c0,8.8,7.1,15.9,15.9,15.9h-3.3c14.2,0,25.8,11.5,25.8,25.8v0c0,14.2-11.5,25.8-25.8,25.8H422.2c-14.2,0-25.8-11.5-25.8-25.8v0
		C396.4,201.9,407.9,190.4,422.2,190.4z"/>
	<path fill="#FFFFFF" d="M904.3,497h-41.7c-14.2,0-25.8,11.5-25.8,25.8v0c0,14.2,11.5,25.8,25.8,25.8h41.7
		c14.2,0,25.8-11.5,25.8-25.8v0C930.1,508.6,918.6,497,904.3,497z"/>
	<path fill="#FFFFFF" d="M1601.3,509.8h-5.4c-10.7,0-19.3-8.6-19.3-19.3v0c0-10.7,8.6-19.3,19.3-19.3h79.6c13.8,0,25-11.2,25-25v0
		c0-13.8-11.2-25-25-25h-299.4c-13.8,0-25,11.2-25,25v0c0,13.8,11.2,25,25,25h32.9c10.7,0,19.3,8.6,19.3,19.3v0
		c0,10.7-8.6,19.3-19.3,19.3h-87.2c-8.6,0-15.7,7-15.7,15.7l0,0c0,8.6,7,15.7,15.7,15.7h279.5c8.6,0,15.7-7,15.7-15.7l0,0
		C1617,516.8,1610,509.8,1601.3,509.8z"/>
	<path fill="#FFFFFF" d="M1719.2,509.8h-62.9c-8.6,0-15.7,7-15.7,15.7l0,0c0,8.6,7,15.7,15.7,15.7h62.9c8.6,0,15.7-7,15.7-15.7l0,0
		C1734.9,516.8,1727.9,509.8,1719.2,509.8z"/>
	<path fill="#FFFFFF" d="M1794.4,509.8h-16.6c-8.6,0-15.7,7-15.7,15.7s7,15.7,15.7,15.7h16.6c8.6,0,15.7-7,15.7-15.7
		S1803,509.8,1794.4,509.8z"/>
</g>
<path fill="#FFFFFF" d="M465.5,978H319c-8.9,0-16.2-7.3-16.2-16.2v0c0-8.9,7.3-16.2,16.2-16.2h90.6c16.8,0,30.4-13.6,30.4-30.4v0
	c0-16.8-13.6-30.4-30.4-30.4H142.3c-16.8,0-30.4,13.6-30.4,30.4v0c0,16.8,13.6,30.4,30.4,30.4h35.9c8.9,0,16.2,7.3,16.2,16.2v0
	c0,8.9-7.3,16.2-16.2,16.2h-5.7c-14.1,0-25.5,11.4-25.5,25.5v0c0,14.1,11.4,25.5,25.5,25.5h293c14.1,0,25.5-11.4,25.5-25.5v0
	C491,989.4,479.6,978,465.5,978z"/>
<g>
	<path fill="#FFFFFF" d="M1265.1,745.4h-146.5c-8.9,0-16.2-7.3-16.2-16.2v0c0-8.9,7.3-16.2,16.2-16.2h90.6
		c16.8,0,30.4-13.6,30.4-30.4v0c0-16.8-13.6-30.4-30.4-30.4H941.8c-16.8,0-30.4,13.6-30.4,30.4v0c0,16.8,13.6,30.4,30.4,30.4h35.9
		c8.9,0,16.2,7.3,16.2,16.2v0c0,8.9-7.3,16.2-16.2,16.2h-5.7c-14.1,0-25.5,11.4-25.5,25.5s11.4,25.5,25.5,25.5h293
		c14.1,0,25.5-11.4,25.5-25.5S1279.2,745.4,1265.1,745.4z"/>
	<path fill="#FFFFFF" d="M1884.5,194.3H1738c-8.9,0-16.2-7.3-16.2-16.2v0c0-8.9,7.3-16.2,16.2-16.2h90.6c16.8,0,30.4-13.6,30.4-30.4
		v0c0-16.8-13.6-30.4-30.4-30.4h-267.3c-16.8,0-30.4,13.6-30.4,30.4v0c0,16.8,13.6,30.4,30.4,30.4h35.9c8.9,0,16.2,7.3,16.2,16.2v0
		c0,8.9-7.3,16.2-16.2,16.2h-5.7c-14.1,0-25.5,11.4-25.5,25.5s11.4,25.5,25.5,25.5h293c14.1,0,25.5-11.4,25.5-25.5
		S1898.6,194.3,1884.5,194.3z"/>
	<path fill="#FFFFFF" d="M894.5,745.4h-6.2c-14.1,0-25.5,11.4-25.5,25.5s11.4,25.5,25.5,25.5h6.2c14.1,0,25.5-11.4,25.5-25.5
		S908.6,745.4,894.5,745.4z"/>
	<path fill="#FFFFFF" d="M806.7,745.4h-6.2c-14.1,0-25.5,11.4-25.5,25.5s11.4,25.5,25.5,25.5h6.2c14.1,0,25.5-11.4,25.5-25.5
		S820.8,745.4,806.7,745.4z"/>
</g>
<rect x="252.3" y="767.3" fill="#603913" width="58.1" height="570.9"/>
<circle fill="#39B54A" cx="281.4" cy="760.5" r="208"/>
<path fill="#279331" d="M397.9,588.1c20.1,32,31.8,69.9,31.8,110.6c0,114.9-93.1,208-208,208c-43.2,0-83.3-13.2-116.5-35.7
	c36.8,58.5,102,97.4,176.2,97.4c114.9,0,208-93.1,208-208C489.4,688.7,453.1,625.5,397.9,588.1z"/>
<rect x="1744.4" y="832.6" fill="#603913" width="51.5" height="505.6"/>
<circle fill="#39B54A" cx="1770.2" cy="826.5" r="184.2"/>
<path fill="#279331" d="M1873.4,673.9c17.8,28.4,28.2,61.9,28.2,97.9c0,101.7-82.5,184.2-184.2,184.2c-38.2,0-73.7-11.6-103.2-31.6
	c32.6,51.8,90.3,86.3,156.1,86.3c101.7,0,184.2-82.5,184.2-184.2C1954.4,763,1922.3,707,1873.4,673.9z"/>
<g>
	<rect x="485.8" y="852.8" fill="#603913" width="49.4" height="485.4"/>
	<path fill="#39B54A" d="M510.5,1014L510.5,1014c-58.2,0-105.4-47.2-105.4-105.4v-93.7c0-58.2,47.2-105.4,105.4-105.4h0
		c58.2,0,105.4,47.2,105.4,105.4v93.7C615.9,966.8,568.7,1014,510.5,1014z"/>
	<path fill="#279331" d="M510.5,709.5L510.5,709.5c-11.1,0-21.7,1.7-31.8,4.9c42.7,13.5,73.6,53.4,73.6,100.5v93.7
		c0,47.1-30.9,87-73.6,100.5c10,3.2,20.7,4.9,31.8,4.9h0c58.2,0,105.4-47.2,105.4-105.4v-93.7C615.9,756.7,568.7,709.5,510.5,709.5z
		"/>
</g>
<g>
	<rect x="1177.2" y="782.7" fill="#603913" width="56.6" height="555.5"/>
	<path fill="#39B54A" d="M1205.5,967.1L1205.5,967.1c-66.6,0-120.6-54-120.6-120.6V739.4c0-66.6,54-120.6,120.6-120.6h0
		c66.6,0,120.6,54,120.6,120.6v107.2C1326,913.2,1272.1,967.1,1205.5,967.1z"/>
	<path fill="#279331" d="M1205.5,618.8L1205.5,618.8c-12.7,0-24.9,2-36.3,5.6c48.8,15.4,84.2,61.1,84.2,115v107.2
		c0,53.9-35.4,99.6-84.2,115c11.5,3.6,23.7,5.6,36.3,5.6h0c66.6,0,120.6-54,120.6-120.6V739.4C1326,672.8,1272.1,618.8,1205.5,618.8
		z"/>
</g>
<rect y="1273.8" fill="#39B54A" width="1999.5" height="64.4"/>
<rect y="1338.2" fill="#848587" width="2000" height="104.1"/>
<g>
	<g>
		<path fill="#39540B" d="M1669,1152.6h-10.7v-108.4h10.7c12.8,0,23.2,10.4,23.2,23.2v62C1692.2,1142.2,1681.8,1152.6,1669,1152.6z"
			/>
		<rect x="1364.1" y="774.6" fill="#8DC63F" width="302.7" height="823.9"/>
		<rect x="1364.1" y="774.6" fill="#74A528" width="29.1" height="823.9"/>
		<rect x="1637.8" y="774.6" fill="#74A528" width="29.1" height="823.9"/>
		<rect x="1414" y="902.2" fill="#39540B" width="203" height="170.3"/>
		<rect x="1414" y="796.4" fill="#BFED77" width="203" height="14.5"/>
		<rect x="1414" y="825.5" fill="#BFED77" width="203" height="14.5"/>
		<rect x="1414" y="854.5" fill="#BFED77" width="203" height="14.5"/>
		<polygon fill="#FBCC0A" points="1584.5,1152.6 1482.9,1234.9 1510.9,1265.6 1446.4,1364.2 1570.1,1268.2 1541.2,1231.4 		"/>
		<g>
			<path fill="#39540B" d="M1513,1438.1h-206.2c-74.2,0-134.5-60.3-134.5-134.5c0-56.1-45.6-101.7-101.7-101.7H983v-30h87.5
				c72.6,0,131.7,59.1,131.7,131.7c0,57.6,46.9,104.5,104.5,104.5H1513c61,0,118.4-23.8,161.6-66.9s66.9-100.5,66.9-161.6
				c0-36.5-29.7-66.2-66.2-66.2v-30c53,0,96.2,43.1,96.2,96.2c0,69-26.9,134-75.7,182.8C1646.9,1411.2,1582,1438.1,1513,1438.1z"/>
		</g>
	</g>
	<g>
		<rect x="309" y="1113.9" fill="#004740" width="19.4" height="18.9"/>
		<rect x="1024.7" y="1113.9" fill="#004740" width="19.4" height="18.9"/>
		<path fill="#00A79D" d="M309,1085.9v46.9h-43.9c-6.8,0-13.6-1.6-19.6-4.9c-7.4-4.1-15.2-11.4-16.8-24.4
			c-2.7-21.6,28.8-27.5,39.6-28.9c2-0.3,4-0.4,6-0.4h23C303.8,1074.2,309,1079.4,309,1085.9z"/>
		<path fill="#00A79D" d="M1044.1,1085.9v46.9h43.9c6.8,0,13.6-1.6,19.6-4.9c7.4-4.1,15.2-11.4,16.8-24.4
			c2.7-21.6-28.8-27.5-39.6-28.9c-2-0.3-4-0.4-6-0.4h-23C1049.4,1074.2,1044.1,1079.4,1044.1,1085.9z"/>
		<path fill="#00A79D" d="M1052,1172.1l-16.4-9.9l0,0c0-2.7-0.1-5.4-0.3-8c-0.1-1.8-0.3-3.6-0.5-5.3c-0.1-0.9-0.2-1.8-0.4-2.6
			c-1-7-2.7-14-5.1-20.7c-0.6-1.7-1.2-3.4-1.9-5l-62.1-151.7c-5.1-12.6-12.5-23.8-21.5-33.3c-3.6-3.8-7.5-7.3-11.6-10.5
			c-1-0.8-2.1-1.6-3.1-2.4c-2.1-1.5-4.3-3-6.5-4.4c-5.5-3.4-11.4-6.4-17.5-8.7c-7.3-2.9-15-4.9-22.9-6.1c-5.3-0.8-10.6-1.2-16.1-1.2
			H676.6h0H487c-43.5,0-82.7,26.3-99.1,66.6l-62.1,151.7c-5.4,13.2-8.2,27.4-8.2,41.7l0,0l-16.4,9.9c-31.1,18.8-50.1,52.5-50.1,88.9
			v56.6c0,32.5,3.9,64.9,11.6,96.4l8.4,34.7c4.6,18.9,21.6,32.3,41,32.3h364.5h364.5c19.5,0,36.4-13.3,41-32.3l8.4-34.7
			c7.7-31.6,11.6-64,11.6-96.4v-56.6C1102.1,1224.6,1083.1,1190.9,1052,1172.1z"/>
		<path fill="#004740" d="M395.1,1291.5c10.4,0.8,18.8-8.2,17.4-18.5c-1.9-13.8-7.5-32.9-22.5-51c-18.9-22.7-49-31.7-66.7-35.1
			c-10.7-2.1-21.6,1.8-28.5,10.2c-5.3,6.5-10.4,15.8-11.9,28.4c-2,16.5-1.7,32.5-1.1,43.4c0.4,7.7,6.5,14,14.2,14.6L395.1,1291.5z"
			/>
		<path fill="#08AF9F" d="M1034.8,1148.8c-0.1-0.9-0.2-1.8-0.4-2.6c-1-7-2.7-14-5.1-20.7c-0.6-1.7-1.2-3.4-1.9-5l-62.1-151.7
			c-5.1-12.6-12.5-23.8-21.5-33.3c-3.6-3.8-7.5-7.3-11.6-10.5c-1-0.8-2.1-1.6-3.1-2.4c-2.1-1.5-4.3-3-6.5-4.4
			c-5.5-3.4-11.4-6.4-17.5-8.7c-7.3-2.9-15-4.9-22.9-6.1c-5.3-0.8-10.6-1.2-16.1-1.2H676.6h0H487c-43.5,0-82.7,26.3-99.1,66.6
			l-62.1,151.7c-5.4,13.2-8.2,27.4-8.2,41.7l0,0c0,0,248.3,24.2,358.9,24.2h0c110.6,0,358.9-24.2,358.9-24.2l0.3-0.7
			c0-2.5-0.1-4.9-0.3-7.3C1035.2,1152.3,1035,1150.6,1034.8,1148.8z"/>
		<path fill="#FBB040" d="M396.5,1283.6c-0.2,0-0.5,0-0.7,0l-99.1-8c-3.7-0.3-6.7-3.3-6.9-7.1c-0.6-10.3-0.8-26,1.1-42
			c1.1-9.2,4.5-17.4,10.2-24.3c4-5,10.1-7.8,16.6-7.8c1.4,0,2.8,0.1,4.2,0.4c15.7,3.1,44.6,11.3,62.1,32.4
			c14.1,17,19.1,34.9,20.7,47c0.3,2.4-0.4,4.8-2,6.6C401.1,1282.5,398.8,1283.6,396.5,1283.6L396.5,1283.6z"/>
		<path fill="#414042" d="M312.1,1480.9c-19.5,0-36.4-13.3-41-32.3l-8.4-34.7c-7.7-31.6-11.6-64-11.6-96.4v258c0,12.7,10.3,23,23,23
			h70c12.7,0,23-10.3,23-23v-94.6H312.1z"/>
		<path fill="#004740" d="M958,1291.5c-10.4,0.8-18.8-8.2-17.4-18.5c1.9-13.8,7.5-32.9,22.5-51c18.9-22.7,49-31.7,66.7-35.1
			c10.7-2.1,21.6,1.8,28.5,10.2c5.3,6.5,10.4,15.8,11.9,28.4c2,16.5,1.7,32.5,1.1,43.4c-0.4,7.7-6.5,14-14.2,14.6L958,1291.5z"/>
		<path fill="#FBB040" d="M956.7,1283.6c-2.4,0-4.6-1-6.2-2.8c-1.6-1.8-2.3-4.2-2-6.6c1.7-12.1,6.6-30,20.7-47
			c17.5-21.1,46.4-29.3,62.1-32.4c1.4-0.3,2.8-0.4,4.2-0.4c6.5,0,12.5,2.8,16.6,7.8c5.6,6.9,9.1,15.1,10.2,24.3
			c1.9,16,1.6,31.7,1.1,42c-0.2,3.7-3.2,6.8-6.9,7.1l-99.1,8C957.1,1283.5,956.9,1283.6,956.7,1283.6z"/>
		<path fill="#414042" d="M1041.1,1480.9c19.5,0,36.4-13.3,41-32.3l8.4-34.7c7.7-31.6,11.6-64,11.6-96.4v258c0,12.7-10.3,23-23,23
			h-70c-12.7,0-23-10.3-23-23v-94.6H1041.1z"/>
		<path fill="#78D1C6" d="M265.4,1425.4l5.7,23.3c4.6,18.9,21.6,32.3,41,32.3h364.5h364.5c19.5,0,36.4-13.3,41-32.3l5.7-23.3H265.4z
			"/>
		<path fill="#004740" d="M855.1,1377.8H676.6H498.1c-8.6,0-15.1,7.7-13.7,16.2l6.3,37.3c3.6,21.5,22.2,37.1,44,37.1h141.8h141.8
			c21.8,0,40.3-15.7,44-37.1l6.3-37.3C870.2,1385.5,863.7,1377.8,855.1,1377.8z"/>
		<path fill="#ACE5F9" d="M996.1,1104.6L950,976.3c-9-25-32.7-41.6-59.2-41.6H676.6l0,0v0H462.4c-26.5,0-50.2,16.7-59.2,41.6
			l-46.1,128.3c-4.9,13.7,5.2,28.1,19.8,28.1h299.7v0l0,0h299.7C990.9,1132.7,1001,1118.3,996.1,1104.6z"/>
		<path fill="#004740" d="M883.4,1212.9c-64.7,6.6-206.9,5.7-206.9,5.7h0l0,0c0,0-142.1,0.9-206.9-5.7c-9.2-0.9-16.8,7.1-15.5,16.2
			l5.8,38.6c2.3,15.5,14.1,28,29.5,31c34.7,6.9,101.9,17.5,187,17.5l0,0h0c85.1,0,152.3-10.6,187-17.5c15.4-3.1,27.2-15.5,29.5-31
			l5.8-38.6C900.3,1219.9,892.7,1212,883.4,1212.9z"/>
		<path fill="#00A79D" d="M484.4,1394l1.8,10.8h380.6l1.8-10.8c0.2-0.9,0.2-1.8,0.2-2.7H484.3C484.2,1392.2,484.3,1393.1,484.4,1394
			z"/>
		<polygon fill="#00A79D" points="490.6,1430.3 862.6,1430.3 864.9,1416.8 488.3,1416.8 		"/>
		<path fill="#00A79D" d="M494.1,1442.3c2.3,5.1,5.6,9.7,9.5,13.5h345.9c3.9-3.8,7.2-8.4,9.5-13.5H494.1z"/>
		<path fill="#E6E7E8" d="M765.5,1503.4H587.7c-5,0-9-4-9-9v-34.5c0-5,4-9,9-9h177.8c5,0,9,4,9,9v34.5
			C774.5,1499.3,770.5,1503.4,765.5,1503.4z"/>
		<circle fill="#004740" cx="328.4" cy="1416.8" r="25.5"/>
		<path fill="#FBB040" d="M328.4,1438.3c-11.9,0-21.5-9.6-21.5-21.5c0-11.8,9.6-21.5,21.5-21.5c11.8,0,21.5,9.6,21.5,21.5
			C349.9,1428.6,340.3,1438.3,328.4,1438.3z"/>
		<circle fill="#004740" cx="1024.7" cy="1416.8" r="25.5"/>
		<path fill="#FBB040" d="M1024.7,1438.3c-11.9,0-21.5-9.6-21.5-21.5c0-11.8,9.6-21.5,21.5-21.5c11.8,0,21.5,9.6,21.5,21.5
			C1046.2,1428.6,1036.6,1438.3,1024.7,1438.3z"/>
		<circle fill="#FFDA00" cx="333.8" cy="1240" r="32.3"/>
		<circle fill="#FFDA00" cx="1019.4" cy="1240" r="32.3"/>
		<path fill="#00A79D" d="M897.7,1237l1.2-7.9c0.2-1.5,0.2-2.9,0-4.3c-41.8,5.3-119.1,11.7-219,11.7c-105.2,0-185.4-7.2-225.4-12.6
			c-0.4,1.6-0.4,3.4-0.2,5.2l1.1,7.1c41.3,5.4,120.9,12.3,224.5,12.3C778.1,1248.5,854.9,1242.3,897.7,1237z"/>
		<path fill="#00A79D" d="M457.2,1248.8l1.8,12.3c42.2,5.3,120.2,11.9,220.8,11.9c95.5,0,170.7-5.9,214.2-11.1l1.8-12.3
			c-42.5,5.2-118.5,11.4-216,11.4C577,1261,498.1,1254.1,457.2,1248.8z"/>
		<path fill="#00A79D" d="M461.5,1273.8c1.6,4.8,4.1,9.2,7.4,13c43.9,5.1,117.7,10.7,210.9,10.7c88.2,0,159.1-5,203.7-9.9
			c3.4-3.7,6.1-8.1,7.9-13c-43.2,5.1-117.3,10.8-211.5,10.8C580.5,1285.5,503.5,1279.1,461.5,1273.8z"/>
		<circle fill="#E6E7E8" cx="676.6" cy="1349.1" r="10.9"/>
		<polygon fill="#DEF6FC" points="482,1132.7 651.3,934.7 576,934.7 406.8,1132.7 		"/>
		<polygon fill="#DEF6FC" points="554.1,1132.7 723.4,934.7 676.6,934.7 676.6,934.7 676.6,934.7 674.5,934.7 505.2,1132.7 		"/>
		<polygon fill="#DEF6FC" points="667.5,1132.7 836.8,934.7 811.3,934.7 642.1,1132.7 		"/>
	</g>
</g>
</svg>
